{
    "asset" : {
        "generator" : "Khronos glTF Blender I/O v1.8.19",
        "version" : "2.0"
    },
    "scene" : 0,
    "scenes" : [
        {
            "name" : "Scene",
            "nodes" : [
                0
            ]
        }
    ],
    "nodes" : [
        {
            "mesh" : 0,
            "name" : "\u529e\u516c\u697c35"
        }
    ],
    "materials" : [
        {
            "doubleSided" : true,
            "name" : "Mat3d66-1003769-73-3213",
            "pbrMetallicRoughness" : {
                "baseColorTexture" : {
                    "index" : 0
                },
                "metallicFactor" : 0,
                "roughnessFactor" : 0.5
            }
        },
        {
            "doubleSided" : true,
            "name" : "Mat3d66-1003769-74-7229",
            "pbrMetallicRoughness" : {
                "baseColorFactor" : [
                    0.564706027507782,
                    0.7372549772262573,
                    0.8352940082550049,
                    1
                ],
                "metallicFactor" : 0,
                "roughnessFactor" : 0.9094488620758057
            }
        },
        {
            "doubleSided" : true,
            "name" : "Mat3d66-1003769-75-7296",
            "pbrMetallicRoughness" : {
                "metallicFactor" : 0,
                "roughnessFactor" : 0.5
            }
        },
        {
            "doubleSided" : true,
            "name" : "Mat3d66-1003769-76-6230",
            "pbrMetallicRoughness" : {
                "baseColorFactor" : [
                    0.2509799897670746,
                    0.2980389893054962,
                    0.34902000427246094,
                    1
                ],
                "metallicFactor" : 0,
                "roughnessFactor" : 0.5
            }
        },
        {
            "doubleSided" : true,
            "name" : "Mat3d66-1003769-77-4778",
            "pbrMetallicRoughness" : {
                "baseColorTexture" : {
                    "index" : 1
                },
                "metallicFactor" : 0,
                "roughnessFactor" : 0.5
            }
        },
        {
            "doubleSided" : true,
            "name" : "Mat3d66-1003769-78-7998",
            "pbrMetallicRoughness" : {
                "baseColorTexture" : {
                    "index" : 2
                },
                "metallicFactor" : 0,
                "roughnessFactor" : 0.5
            }
        },
        {
            "doubleSided" : true,
            "name" : "Mat3d66-1003769-79-4067",
            "pbrMetallicRoughness" : {
                "baseColorTexture" : {
                    "index" : 3
                },
                "metallicFactor" : 0,
                "roughnessFactor" : 0.9251968860626221
            }
        }
    ],
    "meshes" : [
        {
            "name" : "Obj3d66-1003769-99-537",
            "primitives" : [
                {
                    "attributes" : {
                        "POSITION" : 0,
                        "NORMAL" : 1,
                        "TEXCOORD_0" : 2
                    },
                    "indices" : 3,
                    "material" : 0
                },
                {
                    "attributes" : {
                        "POSITION" : 4,
                        "NORMAL" : 5,
                        "TEXCOORD_0" : 6
                    },
                    "indices" : 7,
                    "material" : 1
                },
                {
                    "attributes" : {
                        "POSITION" : 8,
                        "NORMAL" : 9,
                        "TEXCOORD_0" : 10
                    },
                    "indices" : 11,
                    "material" : 2
                },
                {
                    "attributes" : {
                        "POSITION" : 12,
                        "NORMAL" : 13,
                        "TEXCOORD_0" : 14
                    },
                    "indices" : 15,
                    "material" : 3
                },
                {
                    "attributes" : {
                        "POSITION" : 16,
                        "NORMAL" : 17,
                        "TEXCOORD_0" : 18
                    },
                    "indices" : 19,
                    "material" : 4
                },
                {
                    "attributes" : {
                        "POSITION" : 20,
                        "NORMAL" : 21,
                        "TEXCOORD_0" : 22
                    },
                    "indices" : 23,
                    "material" : 5
                },
                {
                    "attributes" : {
                        "POSITION" : 24,
                        "NORMAL" : 25,
                        "TEXCOORD_0" : 26
                    },
                    "indices" : 27,
                    "material" : 6
                }
            ]
        }
    ],
    "textures" : [
        {
            "sampler" : 0,
            "source" : 0
        },
        {
            "sampler" : 0,
            "source" : 1
        },
        {
            "sampler" : 0,
            "source" : 2
        },
        {
            "sampler" : 0,
            "source" : 3
        }
    ],
    "images" : [
        {
            "bufferView" : 4,
            "mimeType" : "image/jpeg",
            "name" : "Image_0"
        },
        {
            "bufferView" : 21,
            "mimeType" : "image/jpeg",
            "name" : "Image_1"
        },
        {
            "bufferView" : 26,
            "mimeType" : "image/jpeg",
            "name" : "Image_2"
        },
        {
            "bufferView" : 31,
            "mimeType" : "image/jpeg",
            "name" : "Image_3"
        }
    ],
    "accessors" : [
        {
            "bufferView" : 0,
            "componentType" : 5126,
            "count" : 120,
            "max" : [
                -1.3316879272460938,
                0.30008888244628906,
                5.118307113647461
            ],
            "min" : [
                -8.726408958435059,
                8.869171142578125e-05,
                -2.5560121536254883
            ],
            "type" : "VEC3"
        },
        {
            "bufferView" : 1,
            "componentType" : 5126,
            "count" : 120,
            "type" : "VEC3"
        },
        {
            "bufferView" : 2,
            "componentType" : 5126,
            "count" : 120,
            "type" : "VEC2"
        },
        {
            "bufferView" : 3,
            "componentType" : 5123,
            "count" : 144,
            "type" : "SCALAR"
        },
        {
            "bufferView" : 5,
            "componentType" : 5126,
            "count" : 288,
            "max" : [
                6.878966331481934,
                9.162740707397461,
                13.162841796875
            ],
            "min" : [
                -12.074979782104492,
                -3.337860107421875e-06,
                -8.404582977294922
            ],
            "type" : "VEC3"
        },
        {
            "bufferView" : 6,
            "componentType" : 5126,
            "count" : 288,
            "type" : "VEC3"
        },
        {
            "bufferView" : 7,
            "componentType" : 5126,
            "count" : 288,
            "type" : "VEC2"
        },
        {
            "bufferView" : 8,
            "componentType" : 5123,
            "count" : 360,
            "type" : "SCALAR"
        },
        {
            "bufferView" : 9,
            "componentType" : 5126,
            "count" : 3320,
            "max" : [
                7.835756301879883,
                9.743526458740234,
                14.119983673095703
            ],
            "min" : [
                -12.832232475280762,
                -3.337860107421875e-06,
                -9.36149787902832
            ],
            "type" : "VEC3"
        },
        {
            "bufferView" : 10,
            "componentType" : 5126,
            "count" : 3320,
            "type" : "VEC3"
        },
        {
            "bufferView" : 11,
            "componentType" : 5126,
            "count" : 3320,
            "type" : "VEC2"
        },
        {
            "bufferView" : 12,
            "componentType" : 5123,
            "count" : 3750,
            "type" : "SCALAR"
        },
        {
            "bufferView" : 13,
            "componentType" : 5126,
            "count" : 6027,
            "max" : [
                6.9189653396606445,
                9.162739753723145,
                13.202842712402344
            ],
            "min" : [
                -12.114981651306152,
                0.30008983612060547,
                -8.444581985473633
            ],
            "type" : "VEC3"
        },
        {
            "bufferView" : 14,
            "componentType" : 5126,
            "count" : 6027,
            "type" : "VEC3"
        },
        {
            "bufferView" : 15,
            "componentType" : 5126,
            "count" : 6027,
            "type" : "VEC2"
        },
        {
            "bufferView" : 16,
            "componentType" : 5123,
            "count" : 7536,
            "type" : "SCALAR"
        },
        {
            "bufferView" : 17,
            "componentType" : 5126,
            "count" : 2230,
            "max" : [
                7.2303972244262695,
                9.391816139221191,
                13.514276504516602
            ],
            "min" : [
                -12.226408004760742,
                -4.291534423828125e-06,
                -8.756010055541992
            ],
            "type" : "VEC3"
        },
        {
            "bufferView" : 18,
            "componentType" : 5126,
            "count" : 2230,
            "type" : "VEC3"
        },
        {
            "bufferView" : 19,
            "componentType" : 5126,
            "count" : 2230,
            "type" : "VEC2"
        },
        {
            "bufferView" : 20,
            "componentType" : 5123,
            "count" : 2628,
            "type" : "SCALAR"
        },
        {
            "bufferView" : 22,
            "componentType" : 5126,
            "count" : 317,
            "max" : [
                6.830390930175781,
                9.391159057617188,
                13.114593505859375
            ],
            "min" : [
                -11.826807022094727,
                8.869171142578125e-05,
                -8.356138229370117
            ],
            "type" : "VEC3"
        },
        {
            "bufferView" : 23,
            "componentType" : 5126,
            "count" : 317,
            "type" : "VEC3"
        },
        {
            "bufferView" : 24,
            "componentType" : 5126,
            "count" : 317,
            "type" : "VEC2"
        },
        {
            "bufferView" : 25,
            "componentType" : 5123,
            "count" : 360,
            "type" : "SCALAR"
        },
        {
            "bufferView" : 27,
            "componentType" : 5126,
            "count" : 117,
            "max" : [
                7.723989486694336,
                11.470913887023926,
                14.00822639465332
            ],
            "min" : [
                -12.72046947479248,
                6.907530784606934,
                -9.249750137329102
            ],
            "type" : "VEC3"
        },
        {
            "bufferView" : 28,
            "componentType" : 5126,
            "count" : 117,
            "type" : "VEC3"
        },
        {
            "bufferView" : 29,
            "componentType" : 5126,
            "count" : 117,
            "type" : "VEC2"
        },
        {
            "bufferView" : 30,
            "componentType" : 5123,
            "count" : 132,
            "type" : "SCALAR"
        }
    ],
    "bufferViews" : [
        {
            "buffer" : 0,
            "byteLength" : 1440,
            "byteOffset" : 0
        },
        {
            "buffer" : 0,
            "byteLength" : 1440,
            "byteOffset" : 1440
        },
        {
            "buffer" : 0,
            "byteLength" : 960,
            "byteOffset" : 2880
        },
        {
            "buffer" : 0,
            "byteLength" : 288,
            "byteOffset" : 3840
        },
        {
            "buffer" : 0,
            "byteLength" : 132586,
            "byteOffset" : 4128
        },
        {
            "buffer" : 0,
            "byteLength" : 3456,
            "byteOffset" : 136716
        },
        {
            "buffer" : 0,
            "byteLength" : 3456,
            "byteOffset" : 140172
        },
        {
            "buffer" : 0,
            "byteLength" : 2304,
            "byteOffset" : 143628
        },
        {
            "buffer" : 0,
            "byteLength" : 720,
            "byteOffset" : 145932
        },
        {
            "buffer" : 0,
            "byteLength" : 39840,
            "byteOffset" : 146652
        },
        {
            "buffer" : 0,
            "byteLength" : 39840,
            "byteOffset" : 186492
        },
        {
            "buffer" : 0,
            "byteLength" : 26560,
            "byteOffset" : 226332
        },
        {
            "buffer" : 0,
            "byteLength" : 7500,
            "byteOffset" : 252892
        },
        {
            "buffer" : 0,
            "byteLength" : 72324,
            "byteOffset" : 260392
        },
        {
            "buffer" : 0,
            "byteLength" : 72324,
            "byteOffset" : 332716
        },
        {
            "buffer" : 0,
            "byteLength" : 48216,
            "byteOffset" : 405040
        },
        {
            "buffer" : 0,
            "byteLength" : 15072,
            "byteOffset" : 453256
        },
        {
            "buffer" : 0,
            "byteLength" : 26760,
            "byteOffset" : 468328
        },
        {
            "buffer" : 0,
            "byteLength" : 26760,
            "byteOffset" : 495088
        },
        {
            "buffer" : 0,
            "byteLength" : 17840,
            "byteOffset" : 521848
        },
        {
            "buffer" : 0,
            "byteLength" : 5256,
            "byteOffset" : 539688
        },
        {
            "buffer" : 0,
            "byteLength" : 111920,
            "byteOffset" : 544944
        },
        {
            "buffer" : 0,
            "byteLength" : 3804,
            "byteOffset" : 656864
        },
        {
            "buffer" : 0,
            "byteLength" : 3804,
            "byteOffset" : 660668
        },
        {
            "buffer" : 0,
            "byteLength" : 2536,
            "byteOffset" : 664472
        },
        {
            "buffer" : 0,
            "byteLength" : 720,
            "byteOffset" : 667008
        },
        {
            "buffer" : 0,
            "byteLength" : 37172,
            "byteOffset" : 667728
        },
        {
            "buffer" : 0,
            "byteLength" : 1404,
            "byteOffset" : 704900
        },
        {
            "buffer" : 0,
            "byteLength" : 1404,
            "byteOffset" : 706304
        },
        {
            "buffer" : 0,
            "byteLength" : 936,
            "byteOffset" : 707708
        },
        {
            "buffer" : 0,
            "byteLength" : 264,
            "byteOffset" : 708644
        },
        {
            "buffer" : 0,
            "byteLength" : 189574,
            "byteOffset" : 708908
        }
    ],
    "samplers" : [
        {
            "magFilter" : 9729,
            "minFilter" : 9987
        }
    ],
    "buffers" : [
        {
            "byteLength" : 898484,
            "uri" : "data:application/octet-stream;base64,"
        }
    ]
}
