{
    "asset" : {
        "generator" : "Khronos glTF Blender I/O v1.8.19",
        "version" : "2.0"
    },
    "scene" : 0,
    "scenes" : [
        {
            "name" : "Scene",
            "nodes" : [
                0
            ]
        }
    ],
    "nodes" : [
        {
            "mesh" : 0,
            "name" : "\u529e\u516c\u697c38"
        }
    ],
    "materials" : [
        {
            "doubleSided" : true,
            "name" : "Mat3d66-1003769-52-134",
            "pbrMetallicRoughness" : {
                "baseColorFactor" : [
                    0.800000011920929,
                    0.800000011920929,
                    0.800000011920929,
                    1
                ],
                "metallicFactor" : 0,
                "roughnessFactor" : 0.5
            }
        },
        {
            "doubleSided" : true,
            "name" : "Mat3d66-1003769-51-8432",
            "pbrMetallicRoughness" : {
                "baseColorFactor" : [
                    0.2549020051956177,
                    0.2901960015296936,
                    0.3019610047340393,
                    1
                ],
                "metallicFactor" : 0,
                "roughnessFactor" : 0.5
            }
        },
        {
            "doubleSided" : true,
            "name" : "Mat3d66-1003769-53-2780",
            "pbrMetallicRoughness" : {
                "baseColorFactor" : [
                    0.2509799897670746,
                    0.2980389893054962,
                    0.34902000427246094,
                    1
                ],
                "metallicFactor" : 0,
                "roughnessFactor" : 0.5
            }
        },
        {
            "doubleSided" : true,
            "name" : "Mat3d66-1003769-54-1275",
            "pbrMetallicRoughness" : {
                "baseColorFactor" : [
                    0.800000011920929,
                    0.800000011920929,
                    0.800000011920929,
                    1
                ],
                "metallicFactor" : 0,
                "roughnessFactor" : 0.5
            }
        },
        {
            "doubleSided" : true,
            "name" : "Mat3d66-1003769-55-987",
            "pbrMetallicRoughness" : {
                "baseColorFactor" : [
                    0.564706027507782,
                    0.7372549772262573,
                    0.8352940082550049,
                    1
                ],
                "metallicFactor" : 0.02362203598022461,
                "roughnessFactor" : 0.9251968860626221
            }
        },
        {
            "doubleSided" : true,
            "name" : "Mat3d66-1003769-56-6305",
            "pbrMetallicRoughness" : {
                "baseColorFactor" : [
                    0.800000011920929,
                    0.800000011920929,
                    0.800000011920929,
                    1
                ],
                "metallicFactor" : 0,
                "roughnessFactor" : 0.5
            }
        }
    ],
    "meshes" : [
        {
            "name" : "Obj3d66-1003769-75-316",
            "primitives" : [
                {
                    "attributes" : {
                        "POSITION" : 0,
                        "NORMAL" : 1,
                        "TEXCOORD_0" : 2
                    },
                    "indices" : 3,
                    "material" : 0
                },
                {
                    "attributes" : {
                        "POSITION" : 4,
                        "NORMAL" : 5,
                        "TEXCOORD_0" : 6
                    },
                    "indices" : 7,
                    "material" : 1
                },
                {
                    "attributes" : {
                        "POSITION" : 8,
                        "NORMAL" : 9,
                        "TEXCOORD_0" : 10
                    },
                    "indices" : 11,
                    "material" : 2
                },
                {
                    "attributes" : {
                        "POSITION" : 12,
                        "NORMAL" : 13,
                        "TEXCOORD_0" : 14
                    },
                    "indices" : 15,
                    "material" : 3
                },
                {
                    "attributes" : {
                        "POSITION" : 16,
                        "NORMAL" : 17,
                        "TEXCOORD_0" : 18
                    },
                    "indices" : 19,
                    "material" : 4
                },
                {
                    "attributes" : {
                        "POSITION" : 20,
                        "NORMAL" : 21,
                        "TEXCOORD_0" : 22
                    },
                    "indices" : 23,
                    "material" : 5
                }
            ]
        }
    ],
    "accessors" : [
        {
            "bufferView" : 0,
            "componentType" : 5126,
            "count" : 5068,
            "max" : [
                38.993526458740234,
                13.661774635314941,
                11.558645248413086
            ],
            "min" : [
                -38.99363708496094,
                -9.5367431640625e-07,
                -8.301560401916504
            ],
            "type" : "VEC3"
        },
        {
            "bufferView" : 1,
            "componentType" : 5126,
            "count" : 5068,
            "type" : "VEC3"
        },
        {
            "bufferView" : 2,
            "componentType" : 5126,
            "count" : 5068,
            "type" : "VEC2"
        },
        {
            "bufferView" : 3,
            "componentType" : 5123,
            "count" : 5628,
            "type" : "SCALAR"
        },
        {
            "bufferView" : 4,
            "componentType" : 5126,
            "count" : 9396,
            "max" : [
                33.63407516479492,
                8.523393630981445,
                6.941554546356201
            ],
            "min" : [
                -33.634178161621094,
                3.985741376876831,
                6.901505470275879
            ],
            "type" : "VEC3"
        },
        {
            "bufferView" : 5,
            "componentType" : 5126,
            "count" : 9396,
            "type" : "VEC3"
        },
        {
            "bufferView" : 6,
            "componentType" : 5126,
            "count" : 9396,
            "type" : "VEC2"
        },
        {
            "bufferView" : 7,
            "componentType" : 5123,
            "count" : 11520,
            "type" : "SCALAR"
        },
        {
            "bufferView" : 8,
            "componentType" : 5126,
            "count" : 10307,
            "max" : [
                37.42912292480469,
                11.157861709594727,
                7.954833030700684
            ],
            "min" : [
                -37.48011779785156,
                0.45005130767822266,
                6.561943054199219
            ],
            "type" : "VEC3"
        },
        {
            "bufferView" : 9,
            "componentType" : 5126,
            "count" : 10307,
            "type" : "VEC3"
        },
        {
            "bufferView" : 10,
            "componentType" : 5126,
            "count" : 10307,
            "type" : "VEC2"
        },
        {
            "bufferView" : 11,
            "componentType" : 5123,
            "count" : 12480,
            "type" : "SCALAR"
        },
        {
            "bufferView" : 12,
            "componentType" : 5126,
            "count" : 96,
            "max" : [
                6.769659042358398,
                0.45005226135253906,
                12.396778106689453
            ],
            "min" : [
                -6.769777297973633,
                5.14984130859375e-05,
                6.501513481140137
            ],
            "type" : "VEC3"
        },
        {
            "bufferView" : 13,
            "componentType" : 5126,
            "count" : 96,
            "type" : "VEC3"
        },
        {
            "bufferView" : 14,
            "componentType" : 5126,
            "count" : 96,
            "type" : "VEC2"
        },
        {
            "bufferView" : 15,
            "componentType" : 5123,
            "count" : 108,
            "type" : "SCALAR"
        },
        {
            "bufferView" : 16,
            "componentType" : 5126,
            "count" : 236,
            "max" : [
                37.429115295410156,
                11.157859802246094,
                7.9148383140563965
            ],
            "min" : [
                -37.48011779785156,
                0.45005130767822266,
                6.55195426940918
            ],
            "type" : "VEC3"
        },
        {
            "bufferView" : 17,
            "componentType" : 5126,
            "count" : 236,
            "type" : "VEC3"
        },
        {
            "bufferView" : 18,
            "componentType" : 5126,
            "count" : 236,
            "type" : "VEC2"
        },
        {
            "bufferView" : 19,
            "componentType" : 5123,
            "count" : 252,
            "type" : "SCALAR"
        },
        {
            "bufferView" : 20,
            "componentType" : 5126,
            "count" : 495,
            "max" : [
                38.79351806640625,
                11.136948585510254,
                11.163642883300781
            ],
            "min" : [
                -38.79364013671875,
                5.14984130859375e-05,
                -8.101553916931152
            ],
            "type" : "VEC3"
        },
        {
            "bufferView" : 21,
            "componentType" : 5126,
            "count" : 495,
            "type" : "VEC3"
        },
        {
            "bufferView" : 22,
            "componentType" : 5126,
            "count" : 495,
            "type" : "VEC2"
        },
        {
            "bufferView" : 23,
            "componentType" : 5123,
            "count" : 564,
            "type" : "SCALAR"
        }
    ],
    "bufferViews" : [
        {
            "buffer" : 0,
            "byteLength" : 60816,
            "byteOffset" : 0
        },
        {
            "buffer" : 0,
            "byteLength" : 60816,
            "byteOffset" : 60816
        },
        {
            "buffer" : 0,
            "byteLength" : 40544,
            "byteOffset" : 121632
        },
        {
            "buffer" : 0,
            "byteLength" : 11256,
            "byteOffset" : 162176
        },
        {
            "buffer" : 0,
            "byteLength" : 112752,
            "byteOffset" : 173432
        },
        {
            "buffer" : 0,
            "byteLength" : 112752,
            "byteOffset" : 286184
        },
        {
            "buffer" : 0,
            "byteLength" : 75168,
            "byteOffset" : 398936
        },
        {
            "buffer" : 0,
            "byteLength" : 23040,
            "byteOffset" : 474104
        },
        {
            "buffer" : 0,
            "byteLength" : 123684,
            "byteOffset" : 497144
        },
        {
            "buffer" : 0,
            "byteLength" : 123684,
            "byteOffset" : 620828
        },
        {
            "buffer" : 0,
            "byteLength" : 82456,
            "byteOffset" : 744512
        },
        {
            "buffer" : 0,
            "byteLength" : 24960,
            "byteOffset" : 826968
        },
        {
            "buffer" : 0,
            "byteLength" : 1152,
            "byteOffset" : 851928
        },
        {
            "buffer" : 0,
            "byteLength" : 1152,
            "byteOffset" : 853080
        },
        {
            "buffer" : 0,
            "byteLength" : 768,
            "byteOffset" : 854232
        },
        {
            "buffer" : 0,
            "byteLength" : 216,
            "byteOffset" : 855000
        },
        {
            "buffer" : 0,
            "byteLength" : 2832,
            "byteOffset" : 855216
        },
        {
            "buffer" : 0,
            "byteLength" : 2832,
            "byteOffset" : 858048
        },
        {
            "buffer" : 0,
            "byteLength" : 1888,
            "byteOffset" : 860880
        },
        {
            "buffer" : 0,
            "byteLength" : 504,
            "byteOffset" : 862768
        },
        {
            "buffer" : 0,
            "byteLength" : 5940,
            "byteOffset" : 863272
        },
        {
            "buffer" : 0,
            "byteLength" : 5940,
            "byteOffset" : 869212
        },
        {
            "buffer" : 0,
            "byteLength" : 3960,
            "byteOffset" : 875152
        },
        {
            "buffer" : 0,
            "byteLength" : 1128,
            "byteOffset" : 879112
        }
    ],
    "buffers" : [
        {
            "byteLength" : 880240,
            "uri" : "data:application/octet-stream;base64,"
        }
    ]
}
